<?xml version="1.0" encoding="UTF-8" standalone="no"?>
<!-- Created with Inkscape (http://www.inkscape.org/) -->

<svg
   xmlns:dc="http://purl.org/dc/elements/1.1/"
   xmlns:cc="http://creativecommons.org/ns#"
   xmlns:rdf="http://www.w3.org/1999/02/22-rdf-syntax-ns#"
   xmlns:svg="http://www.w3.org/2000/svg"
   xmlns="http://www.w3.org/2000/svg"
   xmlns:xlink="http://www.w3.org/1999/xlink"
   xmlns:sodipodi="http://sodipodi.sourceforge.net/DTD/sodipodi-0.dtd"
   xmlns:inkscape="http://www.inkscape.org/namespaces/inkscape"
   width="56.300594mm"
   height="16.55485mm"
   viewBox="0 0 56.300594 16.55485"
   version="1.1"
   id="svg8"
   inkscape:version="0.92.1 r15371"
   sodipodi:docname="ookkotulos.svg">
  <defs
     id="defs2">
    <linearGradient
       inkscape:collect="always"
       id="linearGradient4529">
      <stop
         style="stop-color:#d35fbc;stop-opacity:1;"
         offset="0"
         id="stop4525" />
      <stop
         style="stop-color:#d35fbc;stop-opacity:0;"
         offset="1"
         id="stop4527" />
    </linearGradient>
    <linearGradient
       inkscape:collect="always"
       xlink:href="#linearGradient4529"
       id="linearGradient4531"
       x1="109.75484"
       y1="144.43936"
       x2="103.09301"
       y2="155.02269"
       gradientUnits="userSpaceOnUse"
       gradientTransform="translate(-69.169643,-84.288691)" />
  </defs>
  <sodipodi:namedview
     id="base"
     pagecolor="#ffffff"
     bordercolor="#666666"
     borderopacity="1.0"
     inkscape:pageopacity="0.0"
     inkscape:pageshadow="2"
     inkscape:zoom="3.959798"
     inkscape:cx="146.75773"
     inkscape:cy="3.0289075"
     inkscape:document-units="mm"
     inkscape:current-layer="g8956"
     showgrid="false"
     fit-margin-top="0"
     fit-margin-left="0"
     fit-margin-right="0"
     fit-margin-bottom="0"
     inkscape:window-width="2560"
     inkscape:window-height="1377"
     inkscape:window-x="-8"
     inkscape:window-y="-8"
     inkscape:window-maximized="1" />
  <metadata
     id="metadata5">
    <rdf:RDF>
      <cc:Work
         rdf:about="">
        <dc:format>image/svg+xml</dc:format>
        <dc:type
           rdf:resource="http://purl.org/dc/dcmitype/StillImage" />
        <dc:title></dc:title>
      </cc:Work>
    </rdf:RDF>
  </metadata>
  <g
     inkscape:label="Layer 1"
     inkscape:groupmode="layer"
     id="layer1"
     transform="translate(-29.184121,-56.338724)">
    <g
       id="g8956"
       transform="matrix(0.20063641,0,0,0.20063641,69.297722,-39.715979)">
      <rect
         style="opacity:1;fill:#3b3f70;fill-opacity:1;fill-rule:evenodd;stroke:none;stroke-width:1.73561192;stroke-linecap:round;stroke-miterlimit:4;stroke-dasharray:none;stroke-opacity:1"
         id="rect8913"
         width="74.547722"
         height="74.547722"
         x="104.21064"
         y="487.67032"
         rx="26.809746"
         ry="26.809746"
         transform="rotate(32.053276)" />
      <g
         aria-label="?"
         transform="rotate(34.704102)"
         style="font-style:normal;font-weight:normal;font-size:56.64278793px;line-height:1.25;font-family:sans-serif;letter-spacing:0px;word-spacing:0px;fill:#c9ccf2;fill-opacity:1;stroke:none;stroke-width:1.41606975"
         id="text8818-5-1">
        <path
           d="m 184.04625,494.95522 q 1.86922,0 3.45521,1.01957 1.586,0.96293 2.71886,2.71886 1.1895,1.75592 1.81257,4.07828 0.62307,2.32235 0.62307,4.98456 0,2.60557 -0.62307,4.87128 -0.56643,2.26571 -1.69929,3.965 -1.13285,1.64264 -2.71885,2.60557 -1.586,0.96292 -3.5685,0.96292 h -3.34192 q -4.98457,0 -4.98457,9.57263 h -3.56849 q -0.96293,-1.35942 -1.41607,-2.77549 -0.3965,-1.41607 -0.3965,-3.34193 0,-1.92585 0.56643,-3.62514 0.62307,-1.69928 1.69928,-2.88878 1.13286,-1.24614 2.60557,-1.92585 1.52935,-0.73636 3.34192,-0.73636 h 1.75593 q 1.81257,0 2.94542,-1.92585 1.13286,-1.9825 1.13286,-4.92793 0,-2.94542 -1.13286,-4.92792 -1.13285,-1.9825 -2.94542,-1.9825 h -16.02991 v -5.72092 z m -4.30485,38.17724 v 7.59014 h -10.36563 v -7.59014 z"
           style="font-style:normal;font-variant:normal;font-weight:normal;font-stretch:normal;font-family:Unispace;-inkscape-font-specification:Unispace;fill:#c9ccf2;fill-opacity:1;stroke-width:1.41606975"
           id="path10226" />
      </g>
      <g
         aria-label="?"
         transform="rotate(-145.2959)"
         style="font-style:normal;font-weight:normal;font-size:56.64278793px;line-height:1.25;font-family:sans-serif;letter-spacing:0px;word-spacing:0px;fill:#c9ccf2;fill-opacity:1;stroke:none;stroke-width:1.41606975"
         id="text8818-5-4-6">
        <path
           d="m -147.17636,-540.7226 q 1.86921,0 3.45521,1.01957 1.586,0.96292 2.71886,2.71885 1.1895,1.75593 1.81257,4.07828 0.62307,2.32236 0.62307,4.98457 0,2.60556 -0.62307,4.87128 -0.56643,2.26571 -1.69929,3.96499 -1.13285,1.64264 -2.71885,2.60557 -1.586,0.96293 -3.5685,0.96293 h -3.34192 q -4.98457,0 -4.98457,9.57263 h -3.56849 q -0.96293,-1.35943 -1.41607,-2.7755 -0.3965,-1.41607 -0.3965,-3.34192 0,-1.92586 0.56643,-3.62514 0.62307,-1.69928 1.69928,-2.88878 1.13286,-1.24614 2.60557,-1.92586 1.52935,-0.73635 3.34192,-0.73635 h 1.75593 q 1.81257,0 2.94542,-1.92586 1.13286,-1.9825 1.13286,-4.92792 0,-2.94543 -1.13286,-4.92792 -1.13285,-1.9825 -2.94542,-1.9825 h -16.02991 v -5.72092 z m -4.30485,38.17724 v 7.59013 h -10.36563 v -7.59013 z"
           style="font-style:normal;font-variant:normal;font-weight:normal;font-stretch:normal;font-family:Unispace;-inkscape-font-specification:Unispace;fill:#c9ccf2;fill-opacity:1;stroke-width:1.41606975"
           id="path10229" />
      </g>
      <g
         aria-label="OOKKO"
         style="font-style:normal;font-weight:normal;font-size:55.3404007px;line-height:1.25;font-family:sans-serif;letter-spacing:0px;word-spacing:0px;fill:#3b3f70;fill-opacity:1;stroke:none;stroke-width:1.38350999"
         id="text8927">
        <path
           d="m -91.747094,538.72455 q -8.322676,0 -13.564886,-5.40433 -5.2422,-5.43136 -5.2422,-14.13234 0,-9.18737 5.32327,-14.86193 5.323269,-5.67455 14.105315,-5.67455 8.295656,0 13.402753,5.43136 5.13412,5.43136 5.13412,14.32149 0,9.13333 -5.323271,14.72682 -5.29625,5.59348 -13.835101,5.59348 z m 0.378304,-32.56112 q -4.593686,0 -7.295854,3.45877 -2.702166,3.43176 -2.702166,9.10631 0,5.75562 2.702166,9.10631 2.702168,3.35068 7.07968,3.35068 4.512621,0 7.160746,-3.2426 2.648124,-3.26962 2.648124,-9.05226 0,-6.02583 -2.567059,-9.37652 -2.56706,-3.35069 -7.025637,-3.35069 z"
           style="font-style:normal;font-variant:normal;font-weight:bold;font-stretch:normal;font-family:'Nirmala UI';-inkscape-font-specification:'Nirmala UI';fill:#3b3f70;fill-opacity:1;stroke-width:1.38350999"
           id="path10211"
           inkscape:connector-curvature="0" />
        <path
           d="m -49.809445,538.72455 q -8.322677,0 -13.564883,-5.40433 -5.242206,-5.43136 -5.242206,-14.13234 0,-9.18737 5.323271,-14.86193 5.323271,-5.67455 14.105317,-5.67455 8.295656,0 13.402753,5.43136 5.134119,5.43136 5.134119,14.32149 0,9.13333 -5.323271,14.72682 -5.296249,5.59348 -13.8351,5.59348 z m 0.378304,-32.56112 q -4.593686,0 -7.295854,3.45877 -2.702168,3.43176 -2.702168,9.10631 0,5.75562 2.702168,9.10631 2.702168,3.35068 7.07968,3.35068 4.512621,0 7.160745,-3.2426 2.648125,-3.26962 2.648125,-9.05226 0,-6.02583 -2.56706,-9.37652 -2.567059,-3.35069 -7.025636,-3.35069 z"
           style="font-style:normal;font-variant:normal;font-weight:bold;font-stretch:normal;font-family:'Nirmala UI';-inkscape-font-specification:'Nirmala UI';fill:#3b3f70;fill-opacity:1;stroke-width:1.38350999"
           id="path10213"
           inkscape:connector-curvature="0" />
        <path
           d="M 7.9629084,538.04901 H -3.061937 L -14.356999,521.2145 q -0.32426,-0.48639 -1.026824,-2.13471 h -0.135109 v 18.96922 h -8.728002 v -38.74909 h 8.728002 v 18.3207 h 0.135109 q 0.32426,-0.75661 1.080867,-2.16173 L -3.6023706,499.29992 H 6.8009762 l -13.51084,18.48283 z"
           style="font-style:normal;font-variant:normal;font-weight:bold;font-stretch:normal;font-family:'Nirmala UI';-inkscape-font-specification:'Nirmala UI';fill:#3b3f70;fill-opacity:1;stroke-width:1.38350999"
           id="path10215"
           inkscape:connector-curvature="0" />
        <path
           d="M 43.847697,538.04901 H 32.822851 L 21.527789,521.2145 q -0.32426,-0.48639 -1.026824,-2.13471 h -0.135108 v 18.96922 h -8.728003 v -38.74909 h 8.728003 v 18.3207 h 0.135108 q 0.324261,-0.75661 1.080868,-2.16173 l 10.700585,-16.15897 h 10.403347 l -13.51084,18.48283 z"
           style="font-style:normal;font-variant:normal;font-weight:bold;font-stretch:normal;font-family:'Nirmala UI';-inkscape-font-specification:'Nirmala UI';fill:#3b3f70;fill-opacity:1;stroke-width:1.38350999"
           id="path10217"
           inkscape:connector-curvature="0" />
        <path
           d="m 61.519874,538.72455 q -8.322677,0 -13.564883,-5.40433 -5.242206,-5.43136 -5.242206,-14.13234 0,-9.18737 5.323271,-14.86193 5.323271,-5.67455 14.105317,-5.67455 8.295656,0 13.402753,5.43136 5.134119,5.43136 5.134119,14.32149 0,9.13333 -5.323271,14.72682 -5.296249,5.59348 -13.8351,5.59348 z m 0.378304,-32.56112 q -4.593686,0 -7.295854,3.45877 -2.702168,3.43176 -2.702168,9.10631 0,5.75562 2.702168,9.10631 2.702168,3.35068 7.07968,3.35068 4.512621,0 7.160745,-3.2426 2.648125,-3.26962 2.648125,-9.05226 0,-6.02583 -2.56706,-9.37652 -2.567059,-3.35069 -7.025636,-3.35069 z"
           style="font-style:normal;font-variant:normal;font-weight:bold;font-stretch:normal;font-family:'Nirmala UI';-inkscape-font-specification:'Nirmala UI';fill:#3b3f70;fill-opacity:1;stroke-width:1.38350999"
           id="path10219"
           inkscape:connector-curvature="0" />
      </g>
    </g>
  </g>
</svg>
